<svg width="9" height="16" viewBox="0 0 9 16" fill="none" xmlns="http://www.w3.org/2000/svg">
<path d="M7.66328 15.9999C7.49256 16.0005 7.32388 15.9628 7.16963 15.8897C7.01538 15.8165 6.87949 15.7097 6.77193 15.5771L1.25245 8.72061C1.08438 8.51613 0.992493 8.25965 0.992493 7.99496C0.992493 7.73027 1.08438 7.47379 1.25245 7.26932L6.9662 0.412821C7.16017 0.179452 7.4389 0.0326955 7.74107 0.00483554C8.04324 -0.0230244 8.34411 0.0702947 8.57748 0.264263C8.81085 0.458232 8.9576 0.736962 8.98546 1.03913C9.01332 1.34131 8.92 1.64217 8.72604 1.87554L3.61795 8.00068L8.55462 14.1258C8.69436 14.2936 8.78313 14.4978 8.81041 14.7144C8.8377 14.931 8.80237 15.1509 8.7086 15.3481C8.61483 15.5452 8.46655 15.7114 8.2813 15.8269C8.09605 15.9424 7.88158 16.0025 7.66328 15.9999Z" fill="black"/>
</svg>
